<svg width="17" height="17" viewBox="0 0 17 17" fill="none" xmlns="http://www.w3.org/2000/svg">
<path d="M16.9315 6.35751C16.7819 5.91489 16.4084 5.59735 15.955 5.52813L11.5686 4.85844L9.60283 0.709155C9.39777 0.271398 8.97482 0 8.5 0C8.02518 0 7.60223 0.272005 7.39717 0.707941L5.43074 4.85905L1.04443 5.52874C0.591579 5.59796 0.217457 5.9161 0.0679311 6.35811C-0.0858675 6.81409 0.0258196 7.31013 0.35905 7.65135L3.55098 10.9191L2.79664 15.5407C2.7173 16.0276 2.91504 16.5024 3.31357 16.7811C3.52108 16.9262 3.76154 16.9997 4.00322 16.9997C4.20279 16.9997 4.40237 16.9493 4.58607 16.8485L8.48962 14.6822L12.4145 16.8485C12.8198 17.0726 13.3074 17.0464 13.6864 16.7811C14.085 16.503 14.2827 16.0276 14.2034 15.5413L13.449 10.9197L16.6409 7.65196C16.9742 7.31074 17.0859 6.8153 16.9321 6.35872L16.9315 6.35751Z" fill="#FFA13E"/>
</svg>
