<svg width="16" height="15" viewBox="0 0 16 15" fill="none" xmlns="http://www.w3.org/2000/svg">
<g filter="url(#filter0_g_3703_1514)">
<path fill-rule="evenodd" clip-rule="evenodd" d="M15.0202 0.813116C15.1529 0.945796 15.2001 1.1416 15.1425 1.32018L14.0189 4.80356C13.9779 4.9305 13.9543 5.00423 13.9399 5.0606C13.935 5.07782 13.9297 5.12545 13.948 5.17824C13.9704 5.2467 14.0053 5.33694 14.0616 5.48216C14.3449 6.21199 14.5 7.00512 14.5 7.83332C14.5 11.4232 11.5899 14.3333 8 14.3333C4.41016 14.3333 1.50002 11.4232 1.50002 7.83332C1.50002 7.00512 1.65516 6.21199 1.93842 5.48216C1.99478 5.33694 2.02962 5.2467 2.05202 5.17824C2.07216 5.12042 2.06578 5.07572 2.06008 5.0606C2.04569 5.00423 2.02214 4.9305 1.98119 4.80356L0.857495 1.32018C0.799889 1.1416 0.847115 0.945796 0.979795 0.813116C1.11248 0.680436 1.30828 0.633209 1.48686 0.690816L5.29763 1.92012C6.12112 1.54322 7.03667 1.33334 8 1.33334C8.96334 1.33334 9.87894 1.54322 10.7024 1.92012L14.5132 0.690816C14.6917 0.633209 14.8875 0.680436 15.0202 0.813116ZM4.62199 5.34162C4.34696 5.36645 4.1439 5.60956 4.16872 5.88458C4.19354 6.15944 4.43634 6.36219 4.71116 6.33766C4.71116 6.33766 4.78867 6.33339 4.82922 6.33279C4.91098 6.33159 5.02466 6.33366 5.151 6.34666C5.28536 6.36046 5.41416 6.38459 5.52798 6.41986L5.47834 6.57732C5.28824 7.18032 5.79617 7.66586 6.31763 7.66586C6.59834 7.66586 6.8672 7.53799 7.02814 7.30759C7.19887 7.06312 7.22327 6.72972 7.03687 6.44712C6.89974 6.23906 6.70214 5.98657 6.44158 5.77962C6.06573 5.48113 5.5825 5.38567 5.2531 5.35186C5.07899 5.33399 4.79399 5.32609 4.62199 5.34162ZM11.3781 5.34162C11.6531 5.36645 11.8562 5.60956 11.8314 5.88458C11.8066 6.15944 11.5638 6.36219 11.2889 6.33766C11.2889 6.33766 11.2115 6.33339 11.1709 6.33279C11.0891 6.33159 10.9755 6.33366 10.8491 6.34666C10.7147 6.36046 10.5859 6.38459 10.4721 6.41986L10.5218 6.57732C10.7119 7.18032 10.2039 7.66586 9.68247 7.66586C9.4018 7.66586 9.13294 7.53799 8.972 7.30759C8.8012 7.06312 8.77687 6.72972 8.9632 6.44712C9.1004 6.23906 9.29794 5.98657 9.55854 5.77962C9.9344 5.48113 10.4176 5.38567 10.747 5.35186C10.9211 5.33399 11.2061 5.32609 11.3781 5.34162ZM6.30036 10.1003C6.07959 9.93439 5.76615 9.97886 5.60028 10.1997C5.43441 10.4204 5.47892 10.7339 5.6997 10.8997C6.3404 11.3811 7.1376 11.6665 8 11.6665C8.86247 11.6665 9.65967 11.3811 10.3003 10.8997C10.5211 10.7339 10.5657 10.4204 10.3998 10.1997C10.2339 9.97886 9.92047 9.93439 9.69967 10.1003C9.2262 10.4559 8.63847 10.6665 8 10.6665C7.3616 10.6665 6.7738 10.4559 6.30036 10.1003Z" fill="url(#paint0_linear_3703_1514)"/>
</g>
<defs>
<filter id="filter0_g_3703_1514" x="0.533336" y="0.366656" width="14.9334" height="14.2667" filterUnits="userSpaceOnUse" color-interpolation-filters="sRGB">
<feFlood flood-opacity="0" result="BackgroundImageFix"/>
<feBlend mode="normal" in="SourceGraphic" in2="BackgroundImageFix" result="shape"/>
<feTurbulence type="fractalNoise" baseFrequency="0.4166666567325592 0.4166666567325592" numOctaves="3" seed="9985" />
<feDisplacementMap in="shape" scale="0.60000002384185791" xChannelSelector="R" yChannelSelector="G" result="displacedImage" width="100%" height="100%" />
<feMerge result="effect1_texture_3703_1514">
<feMergeNode in="displacedImage"/>
</feMerge>
</filter>
<linearGradient id="paint0_linear_3703_1514" x1="2.47391" y1="-14.8991" x2="27.9505" y2="-4.55082" gradientUnits="userSpaceOnUse">
<stop offset="0.2" stop-color="#06ACF1"/>
<stop offset="0.4" stop-color="#08304C"/>
<stop offset="0.46" stop-color="#E600C2"/>
<stop offset="0.46" stop-color="#08304C"/>
<stop offset="0.6" stop-color="#08304C"/>
<stop offset="0.69" stop-color="#FFC837"/>
<stop offset="0.8" stop-color="#00CC3D"/>
</linearGradient>
</defs>
</svg>
