<svg width="16" height="16" viewBox="0 0 16 16" fill="none" xmlns="http://www.w3.org/2000/svg">
<g clip-path="url(#clip0_3703_2427)">
<rect width="16" height="16" fill="white"/>
<g filter="url(#filter0_g_3703_2427)">
<path fill-rule="evenodd" clip-rule="evenodd" d="M15.0202 1.31312C15.1529 1.4458 15.2001 1.6416 15.1425 1.82018L14.0189 5.30356C13.9779 5.4305 13.9543 5.50423 13.9399 5.5606C13.935 5.57782 13.9297 5.62545 13.948 5.67824C13.9704 5.7467 14.0053 5.83694 14.0616 5.98216C14.3449 6.71199 14.5 7.50512 14.5 8.33332C14.5 11.9232 11.5899 14.8333 8.00001 14.8333C4.41017 14.8333 1.50002 11.9232 1.50002 8.33332C1.50002 7.50512 1.65516 6.71199 1.93843 5.98216C1.99479 5.83694 2.02963 5.7467 2.05202 5.67824C2.07216 5.62042 2.06578 5.57572 2.06008 5.5606C2.0457 5.50423 2.02215 5.4305 1.9812 5.30356L0.857503 1.82018C0.799896 1.6416 0.847123 1.4458 0.979803 1.31312C1.11248 1.18044 1.30828 1.13321 1.48686 1.19082L5.29764 2.42012C6.12112 2.04322 7.03668 1.83334 8.00001 1.83334C8.96334 1.83334 9.87894 2.04322 10.7024 2.42012L14.5132 1.19082C14.6917 1.13321 14.8875 1.18044 15.0202 1.31312ZM4.622 5.84162C4.34697 5.86645 4.1439 6.10956 4.16873 6.38458C4.19355 6.65944 4.43635 6.86219 4.71117 6.83766C4.71117 6.83766 4.78868 6.83339 4.82923 6.83279C4.91099 6.83159 5.02467 6.83366 5.151 6.84666C5.28537 6.86046 5.41416 6.88459 5.52798 6.91986L5.47834 7.07732C5.28824 7.68032 5.79618 8.16586 6.31764 8.16586C6.59835 8.16586 6.86721 8.03799 7.02814 7.80759C7.19888 7.56312 7.22328 7.22972 7.03688 6.94712C6.89974 6.73906 6.70214 6.48657 6.44158 6.27962C6.06574 5.98113 5.5825 5.88567 5.25311 5.85186C5.079 5.83399 4.794 5.82609 4.622 5.84162ZM11.3781 5.84162C11.6531 5.86645 11.8562 6.10956 11.8314 6.38458C11.8066 6.65944 11.5638 6.86219 11.2889 6.83766C11.2889 6.83766 11.2115 6.83339 11.1709 6.83279C11.0891 6.83159 10.9755 6.83366 10.8491 6.84666C10.7147 6.86046 10.5859 6.88459 10.4721 6.91986L10.5218 7.07732C10.7119 7.68032 10.2039 8.16586 9.68248 8.16586C9.40181 8.16586 9.13294 8.03799 8.97201 7.80759C8.80121 7.56312 8.77688 7.22972 8.96321 6.94712C9.10041 6.73906 9.29794 6.48657 9.55854 6.27962C9.93441 5.98113 10.4176 5.88567 10.747 5.85186C10.9211 5.83399 11.2061 5.82609 11.3781 5.84162ZM6.30037 10.6003C6.0796 10.4344 5.76616 10.4789 5.60029 10.6997C5.43442 10.9204 5.47893 11.2339 5.6997 11.3997C6.34041 11.8811 7.13761 12.1665 8.00001 12.1665C8.86248 12.1665 9.65968 11.8811 10.3003 11.3997C10.5211 11.2339 10.5657 10.9204 10.3998 10.6997C10.2339 10.4789 9.92048 10.4344 9.69968 10.6003C9.22621 10.9559 8.63848 11.1665 8.00001 11.1665C7.36161 11.1665 6.77381 10.9559 6.30037 10.6003Z" fill="#08304C"/>
</g>
</g>
<defs>
<filter id="filter0_g_3703_2427" x="0.533343" y="0.866656" width="14.9334" height="14.2667" filterUnits="userSpaceOnUse" color-interpolation-filters="sRGB">
<feFlood flood-opacity="0" result="BackgroundImageFix"/>
<feBlend mode="normal" in="SourceGraphic" in2="BackgroundImageFix" result="shape"/>
<feTurbulence type="fractalNoise" baseFrequency="0.4166666567325592 0.4166666567325592" numOctaves="3" seed="9985" />
<feDisplacementMap in="shape" scale="0.60000002384185791" xChannelSelector="R" yChannelSelector="G" result="displacedImage" width="100%" height="100%" />
<feMerge result="effect1_texture_3703_2427">
<feMergeNode in="displacedImage"/>
</feMerge>
</filter>
<clipPath id="clip0_3703_2427">
<rect width="16" height="16" fill="white"/>
</clipPath>
</defs>
</svg>
