<svg width="57" height="56" viewBox="0 0 57 56" fill="none" xmlns="http://www.w3.org/2000/svg">
<path d="M16.7506 8.148C21.2025 5.5779 26.3744 4.53845 31.4736 5.18894C36.5729 5.83944 41.3182 8.144 44.9823 11.7495C48.6465 15.3549 51.0273 20.0624 51.76 25.1504C52.4927 30.2385 51.5369 35.4264 49.039 39.9193C46.541 44.4121 42.6388 47.9619 37.9303 50.0248C33.2218 52.0877 27.9668 52.5497 22.9705 51.3402C17.9743 50.1307 13.5125 47.3163 10.2688 43.3284C7.02511 39.3404 5.17855 34.3989 5.01209 29.261L5 28.4986L5.01209 27.7372C5.1418 23.7433 6.2878 19.8485 8.34178 16.4208C10.3958 12.9932 13.2899 10.1458 16.7506 8.148Z" fill="#26C0FF"/>
<path d="M23.9001 22.7651C22.7498 20.4116 18.1503 20.4116 17 22.7651M40 22.7651C38.8506 20.4116 34.2502 20.4116 33.0999 22.7651M34.2502 34.5283C33.5007 35.3109 32.606 35.9326 31.6186 36.357C30.6313 36.7814 29.571 37 28.5 37C27.429 37 26.3687 36.7814 25.3814 36.357C24.394 35.9326 23.4993 35.3109 22.7498 34.5283" stroke="#084E72" stroke-width="4.667" stroke-linecap="round" stroke-linejoin="round"/>
</svg>
