<svg width="145" height="33" viewBox="0 0 145 33" fill="none" xmlns="http://www.w3.org/2000/svg">
<rect x="12" y="0.5" width="32" height="32" rx="4" fill="#FF1B82"/>
<g clip-path="url(#clip0_3703_1497)">
<path d="M28.9432 3.90585C28.5489 3.67502 28.0632 3.67502 27.6689 3.90585L21.6121 7.44997L33.4563 14.3699V28.3805L39.4987 24.846C39.8858 24.62 40.1238 24.2064 40.1238 23.7568V10.4483L28.9432 3.90585Z" fill="white"/>
<path d="M21.6242 11.1648L16.0291 14.3795L24.822 19.5154V29.9145L30.4051 26.7046C30.6913 26.5363 30.8692 26.2286 30.8692 25.8967V16.0193L22.5691 11.1648C22.2782 10.9941 21.9151 10.9941 21.6242 11.1648Z" fill="white"/>
<path d="M22.1603 27.9742V20.958L16.1637 24.4661L22.1603 27.9742Z" fill="white"/>
</g>
<path d="M57.3965 24V9.99609H62.2402C64.3496 9.99609 66.0814 10.6439 67.4355 11.9395C68.7962 13.2415 69.4766 14.9277 69.4766 16.998C69.4766 18.9902 68.8125 20.6504 67.4844 21.9785C66.1367 23.3262 64.3887 24 62.2402 24H57.3965ZM60.3359 21.2168H62.0645C63.4121 21.2168 64.4505 20.8717 65.1797 20.1816C65.9154 19.485 66.2832 18.4238 66.2832 16.998C66.2832 15.5918 65.9154 14.5404 65.1797 13.8438C64.444 13.1471 63.4056 12.7988 62.0645 12.7988H60.3359V21.2168ZM75.3656 24.1758C73.7706 24.1758 72.5108 23.6647 71.5863 22.6426C70.6488 21.627 70.1801 20.3379 70.1801 18.7754C70.1801 17.1999 70.626 15.9076 71.518 14.8984C72.4294 13.8698 73.6892 13.3555 75.2973 13.3555C76.8337 13.3555 78.0544 13.8372 78.9594 14.8008C79.8513 15.7708 80.2973 16.9915 80.2973 18.4629V19.5957H73.3246C73.3441 20.2467 73.5167 20.7546 73.8422 21.1191C74.1742 21.4902 74.682 21.6758 75.3656 21.6758C76.3161 21.6758 76.9216 21.3307 77.182 20.6406H80.1605C80.0238 21.6302 79.5323 22.4701 78.6859 23.1602C77.8331 23.8372 76.7263 24.1758 75.3656 24.1758ZM73.3441 17.6621H77.1625C77.143 17.1478 76.977 16.7148 76.6645 16.3633C76.3454 16.0443 75.8897 15.8848 75.2973 15.8848C74.6723 15.8848 74.2003 16.0443 73.8813 16.3633C73.5427 16.7018 73.3637 17.1348 73.3441 17.6621ZM86.0789 24.1758C84.4839 24.1758 83.2241 23.6647 82.2996 22.6426C81.3621 21.627 80.8934 20.3379 80.8934 18.7754C80.8934 17.1999 81.3393 15.9076 82.2313 14.8984C83.1427 13.8698 84.4025 13.3555 86.0105 13.3555C87.547 13.3555 88.7677 13.8372 89.6727 14.8008C90.5646 15.7708 91.0105 16.9915 91.0105 18.4629V19.5957H84.0379C84.0574 20.2467 84.2299 20.7546 84.5555 21.1191C84.8875 21.4902 85.3953 21.6758 86.0789 21.6758C87.0294 21.6758 87.6349 21.3307 87.8953 20.6406H90.8738C90.7371 21.6302 90.2456 22.4701 89.3992 23.1602C88.5464 23.8372 87.4396 24.1758 86.0789 24.1758ZM84.0574 17.6621H87.8758C87.8563 17.1478 87.6902 16.7148 87.3777 16.3633C87.0587 16.0443 86.603 15.8848 86.0105 15.8848C85.3855 15.8848 84.9135 16.0443 84.5945 16.3633C84.256 16.7018 84.077 17.1348 84.0574 17.6621ZM92.1047 28.5801V13.541H94.8684L95.1906 14.5371H95.2687C95.9393 13.7493 96.8671 13.3555 98.052 13.3555C99.3215 13.3555 100.347 13.8633 101.128 14.8789C101.903 15.888 102.29 17.1868 102.29 18.7754C102.29 20.3704 101.909 21.666 101.148 22.6621C100.373 23.6712 99.341 24.1758 98.052 24.1758C96.8605 24.1758 95.9328 23.7852 95.2687 23.0039H95.1906V28.5801H92.1047ZM95.0441 18.7754C95.0441 20.5788 95.731 21.4805 97.1047 21.4805C98.4784 21.4805 99.1652 20.5788 99.1652 18.7754C99.1652 17.9551 98.9992 17.304 98.6672 16.8223C98.3156 16.3145 97.7948 16.0605 97.1047 16.0605C96.4211 16.0605 95.9035 16.3145 95.552 16.8223C95.2134 17.3171 95.0441 17.9681 95.0441 18.7754ZM103.785 24V9.99609H110.152C111.539 9.99609 112.658 10.4323 113.511 11.3047C114.351 12.1836 114.771 13.2871 114.771 14.6152C114.771 15.9824 114.351 17.1055 113.511 17.9844C112.658 18.8763 111.539 19.3223 110.152 19.3223H106.929V24H103.785ZM106.929 16.5195H109.527C110.888 16.5195 111.568 15.8848 111.568 14.6152C111.568 14.0163 111.389 13.5573 111.031 13.2383C110.666 12.9323 110.165 12.7793 109.527 12.7793H106.929V16.5195ZM117.535 12.4766C116.936 12.4766 116.477 12.3171 116.158 11.998C115.839 11.6986 115.68 11.2591 115.68 10.6797C115.68 10.1198 115.839 9.68034 116.158 9.36133C116.484 9.05534 116.943 8.90234 117.535 8.90234C118.108 8.90234 118.567 9.05534 118.912 9.36133C119.238 9.68685 119.4 10.1263 119.4 10.6797C119.4 11.2331 119.238 11.6725 118.912 11.998C118.574 12.3171 118.115 12.4766 117.535 12.4766ZM115.973 24V13.541H119.059V24H115.973ZM119.762 24V23.8047L122.955 18.7363L119.879 13.7363V13.541H123.2L125.055 16.8418H125.143L126.998 13.541H130.319V13.7363L127.243 18.7363L130.436 23.8047V24H127.037L125.143 20.6016H125.055L123.161 24H119.762ZM135.622 24.1758C134.027 24.1758 132.767 23.6647 131.843 22.6426C130.905 21.627 130.436 20.3379 130.436 18.7754C130.436 17.1999 130.882 15.9076 131.774 14.8984C132.686 13.8698 133.945 13.3555 135.554 13.3555C137.09 13.3555 138.311 13.8372 139.216 14.8008C140.108 15.7708 140.554 16.9915 140.554 18.4629V19.5957H133.581C133.6 20.2467 133.773 20.7546 134.098 21.1191C134.43 21.4902 134.938 21.6758 135.622 21.6758C136.572 21.6758 137.178 21.3307 137.438 20.6406H140.417C140.28 21.6302 139.789 22.4701 138.942 23.1602C138.089 23.8372 136.983 24.1758 135.622 24.1758ZM133.6 17.6621H137.419C137.399 17.1478 137.233 16.7148 136.921 16.3633C136.602 16.0443 136.146 15.8848 135.554 15.8848C134.929 15.8848 134.457 16.0443 134.137 16.3633C133.799 16.7018 133.62 17.1348 133.6 17.6621ZM141.648 24V9.19531H144.734V24H141.648Z" fill="#2C2C2C"/>
<defs>
<clipPath id="clip0_3703_1497">
<rect width="24.0948" height="26.1818" fill="white" transform="translate(16.029 3.73273)"/>
</clipPath>
</defs>
</svg>
