<svg width="16" height="17" viewBox="0 0 16 17" fill="none" xmlns="http://www.w3.org/2000/svg">
<path d="M6.88625 6.87001C6.88625 6.87001 9.15075 6.68176 9.20962 8.80513C9.26837 10.9285 7.18025 11.2225 5.88625 11.1638C4.59225 11.1049 1.85725 9.31101 2.06312 6.45826L2.22275 5.44226L2.67762 4.91913C2.67762 4.91913 3.72375 2.80401 6.11187 2.16726C6.11187 2.16726 6.3165 1.82613 6.56675 1.82613C6.81687 1.82613 7.02162 2.09901 7.3855 2.14451C7.74937 2.19001 7.88587 1.80338 8.227 1.82613C8.56812 1.84888 8.59087 2.09901 8.95475 2.16726C9.31862 2.23551 11.0926 2.44013 12.5254 4.39613C12.5254 4.39613 12.5936 4.89651 12.7982 4.98751C13.0029 5.07851 13.4805 5.28313 13.5487 5.44238C13.617 5.60163 14.0946 7.30726 14.0491 8.03513C14.0036 8.76288 13.799 12.1516 11.5474 13.1978L11.5019 13.8118C11.5019 13.8118 9.81887 15.3128 7.24887 15.1309C4.67887 14.949 3.98687 14.6783 3.38262 13.8573C3.29937 13.7441 3.178 13.3341 3.178 13.3341L2.95062 12.8565C2.95062 12.8565 2.746 12.5154 3.178 12.5836C3.61012 12.6519 5.17937 13.2659 6.04362 13.2886C6.90787 13.3114 7.36275 12.8565 7.52187 12.811C7.68112 12.7655 8.6135 12.4016 8.8865 12.3561C9.15937 12.3106 10.8424 11.2809 11.0926 8.80513C11.3429 6.32938 9.11387 4.87376 7.84025 4.85101C7.84025 4.85101 7.04425 4.82826 6.86225 4.94201C6.68025 5.05576 5.49762 5.60151 4.97462 5.66976C4.97462 5.66976 4.5425 6.07913 4.61075 6.57951C4.679 7.07988 4.679 8.80201 6.49837 8.80513C6.49837 8.80513 6.93287 8.57063 6.88625 6.87001Z" fill="url(#paint0_linear_3703_1509)"/>
<defs>
<linearGradient id="paint0_linear_3703_1509" x1="2.05212" y1="8.48567" x2="14.0522" y2="8.48567" gradientUnits="userSpaceOnUse">
<stop stop-color="#26C0FF"/>
<stop offset="0.2" stop-color="#E600C2"/>
<stop offset="0.4" stop-color="#FF494E"/>
<stop offset="0.6" stop-color="#FFA13E"/>
<stop offset="0.8" stop-color="#FFC837"/>
<stop offset="1" stop-color="#00CC3D"/>
</linearGradient>
</defs>
</svg>
